<svg version="1.0"  xmlns="http://www.w3.org/2000/svg"
width="1767.000000pt" height="486.000000pt" viewBox="0 0 1767.000000 486.000000"
preserveAspectRatio="xMidYMid meet">

<g transform="translate(0.000000,486.000000) scale(0.100000,-0.100000)"
fill="#FDC332" stroke="none">
<path d="M4977 4265 c-21 -7 -47 -21 -59 -31 -11 -10 -115 -135 -231 -276
l-212 -258 -42 0 -42 0 -3 228 c-3 220 -4 228 -27 266 -67 107 -229 94 -288
-24 l-23 -44 0 -681 c0 -640 2 -682 19 -721 58 -128 231 -134 299 -9 14 25 18
74 22 300 l5 270 305 -314 c177 -182 318 -319 337 -327 18 -8 52 -14 76 -14
110 0 188 128 143 233 -7 18 -133 156 -280 307 -146 151 -266 278 -266 282 0
3 96 124 214 267 118 143 224 274 236 291 44 61 38 148 -12 206 -48 55 -106
71 -171 49z"/>
<path d="M6211 4258 c-72 -24 -80 -41 -379 -743 -244 -574 -285 -677 -286
-720 0 -61 29 -114 80 -145 67 -42 180 -22 224 39 15 22 134 295 393 904 11
26 23 44 28 40 4 -4 94 -213 200 -463 106 -250 199 -465 207 -478 36 -56 148
-79 219 -45 44 21 81 76 89 134 6 43 -10 83 -276 715 -155 368 -288 679 -296
691 -40 63 -131 95 -203 71z"/>
<path d="M7365 4256 c-43 -18 -93 -79 -101 -121 -9 -50 -2 -76 51 -190 229
-489 365 -786 365 -797 0 -7 -20 -49 -43 -93 -50 -94 -75 -112 -175 -124 -83
-11 -123 -35 -152 -91 -58 -114 18 -230 152 -230 207 0 340 102 477 365 64
125 489 1042 502 1085 7 21 9 54 5 75 -9 46 -66 110 -113 126 -79 26 -175 -16
-210 -93 -11 -23 -76 -168 -143 -321 -68 -153 -126 -274 -130 -270 -4 4 -60
130 -125 278 -65 149 -128 291 -141 317 -41 82 -138 119 -219 84z"/>
<path d="M8885 4256 c-42 -18 -93 -79 -100 -118 -3 -18 -5 -342 -3 -719 l3
-686 28 -36 c55 -73 52 -72 432 -72 320 1 344 2 410 23 169 52 295 185 340
359 57 218 -59 465 -265 566 -102 50 -149 57 -396 57 l-214 0 0 149 0 150 323
3 c301 3 324 4 356 23 110 65 114 210 7 289 -27 20 -41 21 -459 23 -342 2
-438 0 -462 -11z m657 -946 c44 -13 93 -52 113 -91 31 -59 10 -164 -42 -211
-46 -42 -84 -48 -293 -48 l-200 0 0 180 0 180 193 0 c105 0 209 -5 229 -10z"/>
<path d="M2560 4136 c-63 -21 -89 -87 -60 -156 15 -37 56 -60 106 -60 28 0 44
8 70 34 86 86 0 221 -116 182z"/>
<path d="M2025 3884 c-44 -15 -72 -39 -92 -79 -16 -30 -16 -87 3 -458 l7 -125
-214 -159 c-118 -88 -222 -172 -232 -187 -45 -68 -25 -168 42 -211 22 -14 136
-50 288 -91 l253 -69 87 -260 c95 -285 110 -313 189 -334 46 -12 106 -1 136
26 11 10 88 118 169 241 82 122 153 222 157 222 4 0 122 3 262 6 215 5 260 9
290 23 63 32 97 125 71 194 -6 14 -65 92 -133 174 -68 81 -140 168 -160 193
l-37 46 75 259 c77 264 84 300 65 345 -24 56 -86 100 -141 100 -20 -1 -136
-41 -269 -94 l-234 -93 -186 132 c-278 196 -281 198 -322 205 -22 4 -52 2 -74
-6z m354 -549 c67 -47 131 -90 142 -95 40 -22 102 -13 222 34 66 25 120 46
122 46 1 0 -15 -62 -36 -137 -40 -141 -47 -201 -29 -248 5 -14 44 -67 85 -118
l76 -92 -33 -6 c-18 -3 -78 -6 -133 -8 -140 -3 -156 -14 -263 -169 -46 -68
-88 -120 -92 -115 -4 4 -28 69 -54 143 -26 74 -54 145 -62 157 -20 32 -52 46
-202 88 -73 21 -131 42 -129 48 1 5 54 49 117 96 63 48 122 100 130 117 12 23
14 60 12 169 -2 77 -5 148 -8 158 -3 9 -1 17 4 17 4 0 63 -38 131 -85z"/>
<path d="M1361 3710 c-79 -34 -123 -101 -122 -186 0 -63 17 -100 65 -142 124
-109 316 -21 316 144 0 106 -74 185 -178 191 -31 1 -68 -2 -81 -7z"/>
<path d="M3594 3261 c-61 -26 -85 -122 -44 -174 29 -36 81 -52 125 -37 111 37
96 203 -20 215 -22 3 -50 1 -61 -4z"/>
<path d="M1827 2403 c-13 -3 -1389 -1489 -1494 -1614 -21 -24 -28 -55 -24
-101 1 -23 57 -86 92 -104 45 -23 94 -18 128 13 55 51 1453 1577 1473 1608 28
43 19 98 -24 142 -53 56 -94 71 -151 56z"/>
<path d="M16217 2176 c-50 -18 -76 -42 -98 -91 -17 -38 -19 -82 -19 -730 0
-652 1 -692 19 -731 19 -41 57 -75 98 -88 12 -4 178 -7 370 -7 323 0 353 1
414 20 223 70 368 282 352 519 -6 97 -35 174 -96 262 l-24 34 29 45 c66 105
93 249 69 376 -35 191 -208 363 -396 394 -98 16 -672 13 -718 -3z m668 -347
c58 -16 92 -53 106 -114 10 -46 9 -57 -9 -99 -17 -37 -30 -51 -64 -66 -24 -11
-63 -20 -88 -20 -101 -1 -175 -83 -167 -187 2 -37 11 -62 31 -87 35 -47 67
-62 145 -69 40 -3 74 -13 90 -25 96 -71 95 -194 -2 -266 -27 -20 -43 -21 -253
-24 l-224 -3 0 485 0 486 198 0 c110 0 215 -5 237 -11z"/>
<path d="M6261 2170 c-272 -57 -505 -249 -609 -503 -49 -119 -62 -195 -58
-347 2 -119 6 -146 33 -227 54 -162 139 -288 264 -391 283 -234 685 -254 990
-50 421 281 503 845 180 1230 -102 121 -239 213 -396 264 -68 23 -101 27 -220
30 -77 2 -160 -1 -184 -6z m329 -355 c115 -46 215 -134 269 -234 79 -149 81
-304 5 -460 -121 -246 -424 -342 -676 -215 -29 15 -80 54 -114 88 -98 98 -145
211 -145 351 0 224 147 420 362 480 73 20 237 15 299 -10z"/>
<path d="M9720 2161 c-161 -43 -312 -167 -383 -314 -66 -135 -68 -156 -65
-720 l3 -502 23 -33 c72 -100 231 -93 286 13 18 35 21 61 24 208 3 124 7 167
15 163 117 -52 147 -60 232 -64 112 -5 187 12 304 69 207 102 341 322 341 561
0 252 -139 472 -366 580 -122 57 -289 73 -414 39z m276 -352 c112 -42 175
-138 175 -267 2 -250 -308 -381 -484 -205 -59 59 -82 116 -82 204 0 65 5 85
30 135 32 62 100 123 159 142 54 17 141 14 202 -9z"/>
<path d="M13535 2168 c-22 -5 -52 -18 -66 -31 -15 -12 -120 -136 -233 -274
-114 -139 -215 -256 -224 -261 -9 -4 -24 -7 -32 -6 -8 1 -23 2 -32 3 -15 1
-17 23 -20 235 -3 266 -5 271 -87 313 -84 43 -180 9 -228 -80 -17 -30 -18 -82
-18 -722 0 -659 1 -692 19 -728 24 -48 77 -84 136 -92 58 -8 126 25 155 75 18
32 20 57 25 313 l5 277 300 -310 c172 -178 316 -319 339 -331 112 -60 240 19
238 146 -2 83 20 57 -441 527 l-124 126 225 274 c123 150 232 285 242 300 26
40 24 127 -3 171 -39 63 -103 90 -176 75z"/>
<path d="M14770 2173 c-57 -10 -169 -47 -225 -75 -204 -102 -354 -278 -427
-498 -27 -83 -32 -111 -34 -225 -5 -195 33 -337 129 -483 183 -281 526 -430
849 -368 415 79 713 459 684 871 -8 124 -29 204 -81 311 -114 236 -330 406
-584 460 -61 13 -252 17 -311 7z m353 -380 c313 -150 385 -555 142 -798 -96
-95 -215 -145 -350 -145 -139 0 -251 46 -350 145 -100 100 -145 210 -145 356
0 218 149 414 361 474 37 10 86 14 156 12 95 -3 107 -6 186 -44z"/>
<path d="M4577 2156 c-21 -8 -48 -22 -59 -33 -26 -23 -20 -10 -339 -758 -294
-690 -291 -681 -237 -762 50 -75 23 -72 689 -73 327 -1 603 2 614 6 70 25 123
109 112 178 -3 19 -57 157 -120 308 -393 934 -450 1065 -475 1092 -51 54 -112
68 -185 42z m184 -897 c141 -335 159 -377 159 -384 0 -3 -129 -5 -286 -5 -268
0 -286 1 -280 18 4 9 69 162 144 340 89 210 139 317 144 308 4 -8 58 -132 119
-277z"/>
<path d="M7755 2156 c-39 -18 -79 -63 -94 -105 -8 -24 -11 -231 -11 -710 0
-638 1 -678 19 -717 18 -39 54 -73 95 -88 11 -4 173 -7 360 -7 288 0 350 3
396 16 211 64 359 259 360 475 0 212 -137 410 -332 481 -58 20 -84 23 -310 27
l-248 4 0 149 0 149 278 1 c373 1 397 4 444 56 22 24 45 82 43 108 -1 11 -2
32 -3 47 -2 34 -56 97 -99 114 -47 20 -854 19 -898 0z m701 -965 c132 -75 104
-279 -44 -321 -20 -5 -124 -10 -229 -10 l-193 0 0 181 0 180 213 -3 c202 -3
214 -4 253 -27z"/>
<path d="M11304 2151 c-168 -48 -310 -161 -388 -310 -54 -104 -70 -171 -70
-296 0 -129 21 -209 84 -316 38 -64 179 -209 203 -209 6 0 -41 -53 -105 -117
-131 -133 -149 -167 -129 -240 29 -106 135 -162 236 -123 16 6 113 94 216 196
l186 185 114 -3 114 -3 -3 -106 c-5 -158 20 -223 102 -266 37 -19 116 -19 154
1 41 21 80 70 87 109 3 18 5 343 3 722 l-3 690 -23 33 c-13 18 -41 41 -62 52
-37 19 -59 20 -347 19 -262 0 -317 -3 -369 -18z m453 -335 c1 -1 3 -123 4
-271 l2 -270 -184 0 -184 0 -54 30 c-97 54 -151 143 -151 249 1 122 107 243
232 264 33 6 328 4 335 -2z"/>
<path d="M3060 2120 c-87 -16 -128 -79 -121 -187 2 -33 67 -101 106 -112 57
-15 115 2 157 48 38 40 44 61 38 131 -6 79 -92 135 -180 120z"/>
</g>
</svg>
